<?xml version="1.0" encoding="utf-8"?>
<!-- Generator: Adobe Illustrator 25.4.1, SVG Export Plug-In . SVG Version: 6.00 Build 0)  -->
<svg version="1.1" id="Layer_1" xmlns="http://www.w3.org/2000/svg" xmlns:xlink="http://www.w3.org/1999/xlink" x="0px" y="0px"
	 viewBox="0 0 38.9 66.1" style="enable-background:new 0 0 38.9 66.1;" xml:space="preserve">
<style type="text/css">
	.st0{fill:#2382BF;}
	.st1{fill:url(#XMLID_00000174600168167887837210000014004312895699020439_);}
	
		.st2{opacity:0.3;clip-path:url(#XMLID_00000064324544971967972840000009627804906516116876_);fill:url(#XMLID_00000072983696936971755830000004776622084752435379_);}
	.st3{fill:url(#XMLID_00000147937912633909011990000009983226529676780715_);}
	.st4{fill:url(#XMLID_00000070819732605176998190000003999661353172609413_);}
	
		.st5{opacity:0.3;clip-path:url(#XMLID_00000132773747560488710800000002388022138704471999_);fill:url(#XMLID_00000085970185818566459720000012395612499367552946_);}
	.st6{fill:url(#XMLID_00000041276301162607664580000015058246590067960983_);}
	.st7{fill:url(#XMLID_00000094605470747384751300000018314536516114480298_);}
	
		.st8{opacity:0.3;clip-path:url(#XMLID_00000049929860396172115270000004781743156656387007_);fill:url(#XMLID_00000155107034969371554080000015657674054861087879_);}
	.st9{fill:url(#XMLID_00000113349395839422923510000013681508086786559421_);}
	.st10{fill:url(#XMLID_00000170999609400921505310000006468454615128242589_);}
	
		.st11{opacity:0.3;clip-path:url(#XMLID_00000137827605846832711460000006171927290995495050_);fill:url(#XMLID_00000002342601410080966340000009662750142111234974_);}
	.st12{fill:url(#XMLID_00000015350744491701694110000000991829065784287420_);}
</style>
<g id="XMLID_217_">
	<path id="XMLID_263_" class="st0" d="M-629.3-191c-2.2,0-4,1.8-4,4v14.3c0,1.5-0.4,3-1.1,4.3c-0.5,0.9-1.1,1.7-1.9,2.3
		c-2.8,2.1-6.9,1.6-9.2-1.2l-11.2-15.6c0,0,0,0,0,0c-3.1-4.8-8.5-8.1-14.7-8.1h-5.7c-2.2,0-4,1.8-4,4c0,2.2,1.8,4,4,4h5.7
		c5.1,0,9.2,4.1,9.2,9.1s-4.1,9.1-9.2,9.1h-5.7c-2.2,0-4,1.8-4,4c0,2.2,1.8,4,4,4h5.7c7.2,0,13.4-4.4,16-10.6l3.4,4.8l0.1,0.1
		c2.9,3.7,7.3,5.7,11.7,5.7c3.1,0,6.1-0.9,8.7-2.9c1.8-1.3,3.2-3,4.2-5c1.3-2.5,2-5.2,2-8V-187C-625.3-189.2-627.1-191-629.3-191z"
		/>
	<path id="XMLID_262_" class="st0" d="M-688.8-156.7c-2.2,0-4-1.8-4-4v-26.2c0-2.2,1.8-4,4-4s4,1.8,4,4v26.2
		C-684.7-158.5-686.5-156.7-688.8-156.7z"/>
	<path id="XMLID_261_" class="st0" d="M-629.3-144.9h-16.8c-2.2,0-4-1.8-4-4s1.8-4,4-4h16.8c2.2,0,4,1.8,4,4
		S-627.1-144.9-629.3-144.9z"/>
	<circle id="XMLID_260_" class="st0" cx="-717.6" cy="-171.7" r="6"/>
	<path id="XMLID_259_" class="st0" d="M-717.6-150.7c-5.4,0-10.8-2.1-14.9-6.2c-4-4-6.2-9.3-6.2-14.9c0-5.6,2.2-10.9,6.2-14.9
		c1.6-1.6,4.1-1.6,5.7,0c1.6,1.6,1.6,4.1,0,5.7c-2.5,2.5-3.8,5.7-3.8,9.2c0,3.5,1.4,6.7,3.8,9.2c5.1,5.1,13.3,5.1,18.4,0
		c2.3-2.3,3.6-5.3,3.8-8.5v-15.9c0-2.2,1.8-4,4-4s4,1.8,4,4l0,16.2c-0.2,5.3-2.4,10.2-6.2,13.9
		C-706.8-152.7-712.2-150.7-717.6-150.7z"/>
	<path id="XMLID_256_" class="st0" d="M-587.4-173.8c0-9.4-7.7-17.1-17.1-17.1c-9.4,0-17.1,7.7-17.1,17.1s7.7,17.1,17.1,17.1
		c1.6,0,3.1-0.2,4.6-0.6c-2.7,2.7-6.4,4.4-10.5,4.4h-1.5c-2.2,0-4,1.8-4,4s1.8,4,4,4h1.5c12.7,0,23.1-10.4,23.1-23.1v-5.1
		L-587.4-173.8z M-613.6-173.8c0-5,4.1-9.1,9.1-9.1c5,0,9.1,4.1,9.1,9.1c0,5-4.1,9.1-9.1,9.1C-609.5-164.7-613.6-168.8-613.6-173.8z
		"/>
	<g id="XMLID_218_">
		
			<linearGradient id="XMLID_00000021119063402848800760000001647428285402947226_" gradientUnits="userSpaceOnUse" x1="-491.9554" y1="-165.475" x2="-460.0453" y2="-165.475" gradientTransform="matrix(0.9998 -1.889905e-02 1.889905e-02 0.9998 -80.8455 -1.6963)">
			<stop  offset="0" style="stop-color:#2399D1"/>
			<stop  offset="1" style="stop-color:#194790"/>
		</linearGradient>
		<path id="XMLID_255_" style="fill:url(#XMLID_00000021119063402848800760000001647428285402947226_);" d="M-570.4-162.8l18.2-18.6
			l1.6,1.5c8.7,8.5,8.8,22.4,0.4,31l-12.1,12.4c-2.1,2.1-5.5,2.2-7.7,0.1v0C-577.4-143.6-577.6-155.5-570.4-162.8z"/>
		<g id="XMLID_252_">
			<defs>
				<path id="XMLID_253_" d="M-570.4-162.8l18.2-18.6l1.6,1.5c8.7,8.5,8.8,22.4,0.4,31l-12.1,12.4c-2.1,2.1-5.5,2.2-7.7,0.1v0
					C-577.4-143.6-577.6-155.5-570.4-162.8z"/>
			</defs>
			<clipPath id="XMLID_00000021803167935341355790000014816920845525630108_">
				<use xlink:href="#XMLID_253_"  style="overflow:visible;"/>
			</clipPath>
			
				<linearGradient id="XMLID_00000155113842454401346750000011782373062378310591_" gradientUnits="userSpaceOnUse" x1="2455.2998" y1="8434.9639" x2="2491.595" y2="8465.9863" gradientTransform="matrix(-0.8397 -0.5431 0.5431 -0.8397 -3072.7295 8271.9971)">
				<stop  offset="0" style="stop-color:#1A171A"/>
				<stop  offset="0.5711" style="stop-color:#FFFFFF"/>
			</linearGradient>
			
				<path id="XMLID_254_" style="opacity:0.3;clip-path:url(#XMLID_00000021803167935341355790000014816920845525630108_);fill:url(#XMLID_00000155113842454401346750000011782373062378310591_);" d="
				M-557.4-134.9c0,0,8.4-22.2-15.6-28.6c0,0,5.4-10.6,7.5-11.5s16.9,4.1,17.9,4.7c1,0.6,4.9,16.3,4.8,17.8c-0.1,1.6-2.2,8-3.2,10.1
				C-547.1-140.2-557.4-134.9-557.4-134.9z"/>
		</g>
		
			<linearGradient id="XMLID_00000137848361168080905320000017170218928364946824_" gradientUnits="userSpaceOnUse" x1="-488.3148" y1="-188.4214" x2="-445.6729" y2="-151.9733" gradientTransform="matrix(0.9998 -1.889905e-02 1.889905e-02 0.9998 -80.8455 -1.6963)">
			<stop  offset="0.3021" style="stop-color:#96BE3D"/>
			<stop  offset="0.3919" style="stop-color:#92BC3E"/>
			<stop  offset="0.4836" style="stop-color:#85B53F"/>
			<stop  offset="0.5763" style="stop-color:#70AC42"/>
			<stop  offset="0.6691" style="stop-color:#4FA045"/>
			<stop  offset="0.7406" style="stop-color:#209647"/>
		</linearGradient>
		<path id="XMLID_250_" style="fill:url(#XMLID_00000137848361168080905320000017170218928364946824_);" d="M-539.4-160.1l-5.9,6
			l0,0l-10.9,11.2c0,0,5-8.5-5.4-18.7l0,0l-7-6.7c-8.7-8.5-8.8-22.4-0.4-31l1.6-1.7l27.8,27.3C-535.7-170-535.7-163.9-539.4-160.1z"
			/>
	</g>
</g>
<g id="XMLID_1_">
	<path id="XMLID_16_" class="st0" d="M-270.9-191c-2.2,0-4,1.8-4,4v14.3c0,1.5-0.4,3-1.1,4.3c-0.5,0.9-1.1,1.7-1.9,2.3
		c-2.8,2.1-6.9,1.6-9.2-1.2l-11.2-15.6c0,0,0,0,0,0c-3.1-4.8-8.5-8.1-14.7-8.1h-5.7c-2.2,0-4,1.8-4,4c0,2.2,1.8,4,4,4h5.7
		c5.1,0,9.2,4.1,9.2,9.1c0,5-4.1,9.1-9.2,9.1h-5.7c-2.2,0-4,1.8-4,4c0,2.2,1.8,4,4,4h5.7c7.2,0,13.4-4.4,16-10.6l3.4,4.8l0.1,0.1
		c2.9,3.7,7.3,5.7,11.7,5.7c3.1,0,6.1-0.9,8.7-2.9c1.8-1.3,3.2-3,4.2-5c1.3-2.5,2-5.2,2-8V-187C-266.9-189.2-268.7-191-270.9-191z"
		/>
	<path id="XMLID_15_" class="st0" d="M-330.3-156.7c-2.2,0-4-1.8-4-4v-26.2c0-2.2,1.8-4,4-4c2.2,0,4,1.8,4,4v26.2
		C-326.3-158.5-328.1-156.7-330.3-156.7z"/>
	<path id="XMLID_14_" class="st0" d="M-270.9-144.9h-16.8c-2.2,0-4-1.8-4-4s1.8-4,4-4h16.8c2.2,0,4,1.8,4,4
		S-268.7-144.9-270.9-144.9z"/>
	<circle id="XMLID_13_" class="st0" cx="-359.2" cy="-171.7" r="6"/>
	<path id="XMLID_12_" class="st0" d="M-359.2-150.6c-5.4,0-10.8-2.1-14.9-6.2c-4-4-6.2-9.3-6.2-14.9c0-5.6,2.2-10.9,6.2-14.9
		c1.6-1.6,4.1-1.6,5.7,0c1.6,1.6,1.6,4.1,0,5.7c-2.5,2.5-3.8,5.7-3.8,9.2c0,3.5,1.4,6.7,3.8,9.2c5.1,5.1,13.3,5.1,18.4,0
		c2.3-2.3,3.6-5.3,3.8-8.5v-15.9c0-2.2,1.8-4,4-4c2.2,0,4,1.8,4,4l0,16.2c-0.2,5.3-2.4,10.2-6.2,13.9
		C-348.4-152.7-353.8-150.6-359.2-150.6z"/>
	<path id="XMLID_9_" class="st0" d="M-229-173.8c0-9.4-7.7-17.1-17.1-17.1c-9.4,0-17.1,7.7-17.1,17.1c0,9.4,7.7,17.1,17.1,17.1
		c1.6,0,3.1-0.2,4.6-0.6c-2.7,2.7-6.4,4.4-10.5,4.4h-1.5c-2.2,0-4,1.8-4,4c0,2.2,1.8,4,4,4h1.5c12.7,0,23.1-10.4,23.1-23.1v-5.1
		L-229-173.8z M-255.2-173.8c0-5,4.1-9.1,9.1-9.1c5,0,9.1,4.1,9.1,9.1c0,5-4.1,9.1-9.1,9.1C-251.1-164.7-255.2-168.8-255.2-173.8z"
		/>
</g>
<g id="XMLID_17_">
	<g id="XMLID_18_">
		
			<linearGradient id="XMLID_00000039839829222660847880000007934561194133489851_" gradientUnits="userSpaceOnUse" x1="83.5008" y1="-154.5975" x2="115.4108" y2="-154.5975" gradientTransform="matrix(0.9998 -1.889905e-02 1.889905e-02 0.9998 -80.8455 -1.6963)">
			<stop  offset="0" style="stop-color:#2399D1"/>
			<stop  offset="1" style="stop-color:#194790"/>
		</linearGradient>
		<path id="XMLID_24_" style="fill:url(#XMLID_00000039839829222660847880000007934561194133489851_);" d="M5.2-162.8l18.2-18.6
			l1.6,1.5c8.7,8.5,8.8,22.4,0.4,31l-12.1,12.4c-2.1,2.1-5.5,2.2-7.7,0.1l0,0C-1.9-143.6-2-155.5,5.2-162.8z"/>
		<g id="XMLID_21_">
			<defs>
				<path id="XMLID_22_" d="M5.2-162.8l18.2-18.6l1.6,1.5c8.7,8.5,8.8,22.4,0.4,31l-12.1,12.4c-2.1,2.1-5.5,2.2-7.7,0.1l0,0
					C-1.9-143.6-2-155.5,5.2-162.8z"/>
			</defs>
			<clipPath id="XMLID_00000080897933613680353120000010792772421343779491_">
				<use xlink:href="#XMLID_22_"  style="overflow:visible;"/>
			</clipPath>
			
				<linearGradient id="XMLID_00000003063798328841941370000011484776917435374777_" gradientUnits="userSpaceOnUse" x1="1972.0208" y1="8747.5488" x2="2008.3158" y2="8778.5713" gradientTransform="matrix(-0.8397 -0.5431 0.5431 -0.8397 -3072.7295 8271.9971)">
				<stop  offset="0" style="stop-color:#1A171A"/>
				<stop  offset="0.5711" style="stop-color:#FFFFFF"/>
			</linearGradient>
			
				<path id="XMLID_23_" style="opacity:0.3;clip-path:url(#XMLID_00000080897933613680353120000010792772421343779491_);fill:url(#XMLID_00000003063798328841941370000011484776917435374777_);" d="
				M18.2-134.9c0,0,8.4-22.2-15.6-28.6c0,0,5.4-10.6,7.5-11.5s16.9,4.1,17.9,4.7c1,0.6,4.9,16.3,4.8,17.8c-0.1,1.6-2.2,8-3.2,10.1
				C28.5-140.2,18.2-134.9,18.2-134.9z"/>
		</g>
		
			<linearGradient id="XMLID_00000103258578806047855910000014521228932834603175_" gradientUnits="userSpaceOnUse" x1="87.1414" y1="-177.5438" x2="129.7832" y2="-141.0958" gradientTransform="matrix(0.9998 -1.889905e-02 1.889905e-02 0.9998 -80.8455 -1.6963)">
			<stop  offset="0.3021" style="stop-color:#96BE3D"/>
			<stop  offset="0.3919" style="stop-color:#92BC3E"/>
			<stop  offset="0.4836" style="stop-color:#85B53F"/>
			<stop  offset="0.5763" style="stop-color:#70AC42"/>
			<stop  offset="0.6691" style="stop-color:#4FA045"/>
			<stop  offset="0.7406" style="stop-color:#209647"/>
		</linearGradient>
		<path id="XMLID_19_" style="fill:url(#XMLID_00000103258578806047855910000014521228932834603175_);" d="M36.2-160.1l-5.9,6l0,0
			l-10.9,11.2c0,0,5-8.5-5.4-18.7l0,0l-7-6.7c-8.7-8.5-8.8-22.4-0.4-31l1.6-1.7L36-173.7C39.8-170,39.9-163.9,36.2-160.1z"/>
	</g>
</g>
<g id="XMLID_43_">
	<g id="XMLID_44_">
		
			<linearGradient id="XMLID_00000021804839276088433580000009285385065465053863_" gradientUnits="userSpaceOnUse" x1="79.702" y1="46.3666" x2="111.6121" y2="46.3666" gradientTransform="matrix(0.9998 -1.889905e-02 1.889905e-02 0.9998 -80.8455 -1.6963)">
			<stop  offset="0" style="stop-color:#2399D1"/>
			<stop  offset="1" style="stop-color:#194790"/>
		</linearGradient>
		<path id="XMLID_50_" style="fill:url(#XMLID_00000021804839276088433580000009285385065465053863_);" d="M5.2,38.2l18.2-18.6
			l1.6,1.5c8.7,8.5,8.8,22.4,0.4,31L13.2,64.5c-2.1,2.1-5.5,2.2-7.7,0.1l0,0C-1.9,57.4-2,45.5,5.2,38.2z"/>
		<g id="XMLID_47_">
			<defs>
				<path id="XMLID_48_" d="M5.2,38.2l18.2-18.6l1.6,1.5c8.7,8.5,8.8,22.4,0.4,31L13.2,64.5c-2.1,2.1-5.5,2.2-7.7,0.1l0,0
					C-1.9,57.4-2,45.5,5.2,38.2z"/>
			</defs>
			<clipPath id="XMLID_00000073681093102329347440000002895426763128430254_">
				<use xlink:href="#XMLID_48_"  style="overflow:visible;"/>
			</clipPath>
			
				<linearGradient id="XMLID_00000138558384577803052550000006379046439739060629_" gradientUnits="userSpaceOnUse" x1="1862.858" y1="8578.7754" x2="1899.1531" y2="8609.7979" gradientTransform="matrix(-0.8397 -0.5431 0.5431 -0.8397 -3072.7295 8271.9971)">
				<stop  offset="0" style="stop-color:#1A171A"/>
				<stop  offset="0.5711" style="stop-color:#FFFFFF"/>
			</linearGradient>
			
				<path id="XMLID_49_" style="opacity:0.3;clip-path:url(#XMLID_00000073681093102329347440000002895426763128430254_);fill:url(#XMLID_00000138558384577803052550000006379046439739060629_);" d="
				M18.2,66.1c0,0,8.4-22.2-15.6-28.6C2.6,37.6,8,27,10,26c2-1,16.9,4.1,17.9,4.7c1,0.6,4.9,16.3,4.8,17.8s-2.2,8-3.2,10.1
				C28.5,60.8,18.2,66.1,18.2,66.1z"/>
		</g>
		
			<linearGradient id="XMLID_00000101101630910687564170000008115991829063094172_" gradientUnits="userSpaceOnUse" x1="83.3427" y1="23.4203" x2="125.9845" y2="59.8683" gradientTransform="matrix(0.9998 -1.889905e-02 1.889905e-02 0.9998 -80.8455 -1.6963)">
			<stop  offset="0.3021" style="stop-color:#96BE3D"/>
			<stop  offset="0.3919" style="stop-color:#92BC3E"/>
			<stop  offset="0.4836" style="stop-color:#85B53F"/>
			<stop  offset="0.5763" style="stop-color:#70AC42"/>
			<stop  offset="0.6691" style="stop-color:#4FA045"/>
			<stop  offset="0.7406" style="stop-color:#209647"/>
		</linearGradient>
		<path id="XMLID_45_" style="fill:url(#XMLID_00000101101630910687564170000008115991829063094172_);" d="M36.2,40.9l-5.9,6l0,0
			L19.3,58.2c0,0,5-8.5-5.4-18.7l0,0l-7-6.7c-8.7-8.5-8.8-22.4-0.4-31L8.2,0L36,27.3C39.8,31,39.9,37.1,36.2,40.9z"/>
	</g>
</g>
<g id="XMLID_132_">
	<g id="XMLID_146_">
		
			<linearGradient id="XMLID_00000069369082594747382170000016105908051969932198_" gradientUnits="userSpaceOnUse" x1="-683.6242" y1="31.8944" x2="-651.8514" y2="31.8944" gradientTransform="matrix(0.9998 -1.889905e-02 1.889905e-02 0.9998 -80.8455 -1.6963)">
			<stop  offset="0" style="stop-color:#2399D1"/>
			<stop  offset="1" style="stop-color:#194790"/>
		</linearGradient>
		<path id="XMLID_152_" style="fill:url(#XMLID_00000069369082594747382170000016105908051969932198_);" d="M-758.3,38.1l18.1-18.5
			l1.5,1.5c8.6,8.4,8.8,22.3,0.4,30.9l-12,12.3c-2.1,2.1-5.5,2.2-7.6,0.1v0C-765.3,57.3-765.5,45.5-758.3,38.1z"/>
		<g id="XMLID_149_">
			<defs>
				<path id="XMLID_150_" d="M-758.3,38.1l18.1-18.5l1.5,1.5c8.6,8.4,8.8,22.3,0.4,30.9l-12,12.3c-2.1,2.1-5.5,2.2-7.6,0.1v0
					C-765.3,57.3-765.5,45.5-758.3,38.1z"/>
			</defs>
			<clipPath id="XMLID_00000072966531037222447950000004966362756214263424_">
				<use xlink:href="#XMLID_150_"  style="overflow:visible;"/>
			</clipPath>
			
				<linearGradient id="XMLID_00000088121177091317956350000011854880658703048856_" gradientUnits="userSpaceOnUse" x1="2504.052" y1="8164.1733" x2="2540.1907" y2="8195.0625" gradientTransform="matrix(-0.8397 -0.5431 0.5431 -0.8397 -3072.7295 8271.9971)">
				<stop  offset="0" style="stop-color:#1A171A"/>
				<stop  offset="0.5711" style="stop-color:#FFFFFF"/>
			</linearGradient>
			
				<path id="XMLID_151_" style="opacity:0.3;clip-path:url(#XMLID_00000072966531037222447950000004966362756214263424_);fill:url(#XMLID_00000088121177091317956350000011854880658703048856_);" d="
				M-745.4,66c0,0,8.3-22.1-15.6-28.4c0,0,5.4-10.5,7.4-11.5c2-1,16.8,4,17.8,4.7c1,0.6,4.9,16.2,4.8,17.7
				c-0.1,1.6-2.2,7.9-3.2,10.1C-735.1,60.7-745.4,66-745.4,66z"/>
		</g>
		
			<linearGradient id="XMLID_00000093859785886656272630000003581193708565685922_" gradientUnits="userSpaceOnUse" x1="-679.9992" y1="9.0468" x2="-637.5409" y2="45.338" gradientTransform="matrix(0.9998 -1.889905e-02 1.889905e-02 0.9998 -80.8455 -1.6963)">
			<stop  offset="0.3072" style="stop-color:#96BE3D"/>
			<stop  offset="0.3959" style="stop-color:#92BC3E"/>
			<stop  offset="0.4866" style="stop-color:#85B53F"/>
			<stop  offset="0.5782" style="stop-color:#70AC42"/>
			<stop  offset="0.6699" style="stop-color:#4FA045"/>
			<stop  offset="0.7406" style="stop-color:#209647"/>
		</linearGradient>
		<path id="XMLID_147_" style="fill:url(#XMLID_00000093859785886656272630000003581193708565685922_);" d="M-727.5,40.9l-5.9,6l0,0
			l-10.9,11.1c0,0,5-8.5-5.4-18.6l0,0l-6.9-6.7c-8.6-8.4-8.8-22.3-0.4-30.9l1.6-1.7l27.7,27.2C-723.8,31-723.8,37.1-727.5,40.9z"/>
	</g>
	<path id="XMLID_133_" class="st0" d="M-667.8,13c2.7,0,4.9,2.2,4.9,4.9s-2.2,4.9-4.9,4.9s-4.9-2.2-4.9-4.9S-670.5,13-667.8,13z
		 M-549.9,52.9V39.7c0-9.5-7.6-17.2-17-17.2c-9.4,0-17,7.7-17,17.2v13.2c0,2.2,1.8,4,4,4c2.2,0,4-1.8,4-4V39.7c0-5.1,4-9.2,9-9.2
		c5,0,9,4.1,9,9.2v13.2c0,2.2,1.8,4,4,4S-549.9,55.1-549.9,52.9z M-625.7,17v21.3v2.8c0,0.1,0,0.1,0,0.2c0,0.3-0.1,0.6-0.1,0.9
		c-0.5,3.6-2.1,7-4.9,9.7c-3.4,3.4-7.8,5-12.2,5c-4.7,0-9.3-1.9-12.7-5.6c-2.8-3.1-4.5-7.2-4.5-11.4c-0.1-4.7,1.7-9.1,5-12.4
		c3.3-3.3,7.6-5,12.2-5c3.3,0,6.4,0.9,9.1,2.6v-8c0-2.2,1.7-4,3.8-4.1C-627.6,12.8-625.7,14.7-625.7,17z M-636.4,46.2
		c1.5-1.5,2.4-3.4,2.6-5.4c0.1-0.7,0.1-1.5,0-2.2c-0.2-2-1.1-3.9-2.6-5.4c-1.7-1.7-4-2.7-6.5-2.7c-2.5,0-4.8,1-6.5,2.7h0
		c-1.7,1.7-2.7,4-2.7,6.5s1,4.8,2.7,6.5C-645.8,49.8-640,49.8-636.4,46.2z M-592.6,51.9c6.7-6.7,6.7-17.6,0-24.4
		c-3.3-3.3-7.6-5-12.2-5c-4.6,0-8.9,1.8-12.2,5s-5,7.6-5,12.2c0,4.6,1.8,8.9,5,12.2c3.4,3.4,7.8,5,12.2,5
		C-600.4,57-596,55.3-592.6,51.9z M-598.3,33.2c3.6,3.6,3.6,9.4,0,13c-3.6,3.6-9.4,3.6-13,0c-1.7-1.7-2.7-4-2.7-6.5s1-4.8,2.7-6.5
		l0,0c1.7-1.7,4-2.7,6.5-2.7S-600,31.5-598.3,33.2z M-663.8,52.9V30.5c0-2.2-1.8-4-4-4s-4,1.8-4,4v22.5c0,2.2,1.8,4,4,4
		S-663.8,55.2-663.8,52.9z M-511.8,39.6c0,2.2-1.8,4-4,4h-21.5c0.4,0.9,1,1.8,1.8,2.6c1.6,1.6,3.7,2.5,5.9,2.7h7.1c2.2,0,4,1.8,4,4
		c0,2.2-1.8,4-4,4l-7.4,0c-4.3-0.2-8.3-2-11.3-5c-6.7-6.7-6.7-17.6,0-24.4c3.3-3.3,7.6-5,12.2-5c4.6,0,8.9,1.8,12.2,5
		c3.1,3.1,4.9,7.2,5,11.6c0,0.1,0,0.2,0,0.3C-511.8,39.5-511.8,39.5-511.8,39.6z M-535.5,33.2c-0.7,0.7-1.3,1.5-1.7,2.3h16.3
		c-0.4-0.8-1-1.6-1.7-2.3c-1.7-1.7-4-2.7-6.5-2.7C-531.4,30.6-533.7,31.5-535.5,33.2z M-694.3,56.8c4.6,0,8.7-3.1,9.9-7.6
		c0,0,0,0,0,0l8.6-31.1c0.6-2.1-0.7-4.4-2.8-4.9c-2.1-0.6-4.4,0.7-5,2.8l-8.6,31.1c-0.3,1-1.2,1.8-2.2,1.8c-0.1,0-0.1,0-0.1,0
		c-0.9-0.1-1.8-0.8-2.1-1.8l-8.6-31.1c-0.6-2.1-2.8-3.4-5-2.8c-2.1,0.6-3.4,2.8-2.8,4.9l8.6,31.2c0,0,0,0,0,0c1.2,4.3,5,7.4,9.4,7.6
		C-694.8,56.8-694.6,56.8-694.3,56.8C-694.4,56.8-694.3,56.8-694.3,56.8z"/>
</g>
<g id="XMLID_2_">
	<path id="XMLID_3_" class="st0" d="M-360,11.1c2.7,0,4.9,2.2,4.9,4.9s-2.2,4.9-4.9,4.9s-4.9-2.2-4.9-4.9S-362.7,11.1-360,11.1z
		 M-242.1,51.1V37.8c0-9.5-7.6-17.2-17-17.2c-9.4,0-17,7.7-17,17.2v13.2c0,2.2,1.8,4,4,4c2.2,0,4-1.8,4-4V37.8c0-5.1,4-9.2,9-9.2
		c5,0,9,4.1,9,9.2v13.2c0,2.2,1.8,4,4,4S-242.1,53.3-242.1,51.1z M-317.9,15.1v21.3v2.8c0,0.1,0,0.1,0,0.2c0,0.3-0.1,0.6-0.1,0.9
		c-0.5,3.6-2.1,7-4.9,9.7c-3.4,3.4-7.8,5-12.2,5c-4.7,0-9.3-1.9-12.7-5.6c-2.8-3.1-4.5-7.2-4.5-11.4c-0.1-4.7,1.7-9.1,5-12.4
		c3.3-3.3,7.6-5,12.2-5c3.3,0,6.4,0.9,9.1,2.6v-8c0-2.2,1.7-4,3.8-4.1C-319.8,10.9-317.9,12.8-317.9,15.1z M-328.6,44.3
		c1.5-1.5,2.4-3.4,2.6-5.4c0.1-0.7,0.1-1.5,0-2.2c-0.2-2-1.1-3.9-2.6-5.4c-1.7-1.7-4-2.7-6.5-2.7s-4.8,1-6.5,2.7h0
		c-1.7,1.7-2.7,4-2.7,6.5c0,2.5,1,4.8,2.7,6.5C-338,47.9-332.2,47.9-328.6,44.3z M-284.8,50c6.7-6.7,6.7-17.6,0-24.4
		c-3.3-3.3-7.6-5-12.2-5c-4.6,0-8.9,1.8-12.2,5c-3.3,3.3-5,7.6-5,12.2c0,4.6,1.8,8.9,5,12.2c3.4,3.4,7.8,5,12.2,5
		C-292.6,55.1-288.2,53.4-284.8,50z M-290.5,31.4c3.6,3.6,3.6,9.4,0,13c-3.6,3.6-9.4,3.6-13,0c-1.7-1.7-2.7-4-2.7-6.5
		c0-2.5,1-4.8,2.7-6.5l0,0c1.7-1.7,4-2.7,6.5-2.7C-294.6,28.7-292.3,29.6-290.5,31.4z M-356,51V28.6c0-2.2-1.8-4-4-4
		c-2.2,0-4,1.8-4,4V51c0,2.2,1.8,4,4,4C-357.8,55.1-356,53.3-356,51z M-204,37.7c0,2.2-1.8,4-4,4h-21.5c0.4,0.9,1,1.8,1.8,2.6
		c1.6,1.6,3.7,2.5,5.9,2.7h7.1c2.2,0,4,1.8,4,4s-1.8,4-4,4l-7.4,0c-4.3-0.2-8.3-2-11.3-5c-6.7-6.7-6.7-17.6,0-24.4
		c3.3-3.3,7.6-5,12.2-5c4.6,0,8.9,1.8,12.2,5c3.1,3.1,4.9,7.2,5,11.6c0,0.1,0,0.2,0,0.3C-204,37.6-204,37.7-204,37.7z M-227.7,31.4
		c-0.7,0.7-1.3,1.5-1.7,2.3h16.3c-0.4-0.8-1-1.6-1.7-2.3c-1.7-1.7-4-2.7-6.5-2.7C-223.7,28.7-226,29.6-227.7,31.4z M-386.6,54.9
		c4.6,0,8.7-3.1,9.9-7.6c0,0,0,0,0,0l8.6-31.1c0.6-2.1-0.7-4.4-2.8-4.9c-2.1-0.6-4.4,0.7-5,2.8l-8.6,31.1c-0.3,1-1.2,1.8-2.2,1.8
		c-0.1,0-0.1,0-0.1,0c-0.9-0.1-1.8-0.8-2.1-1.8l-8.6-31.1c-0.6-2.1-2.8-3.4-5-2.8c-2.1,0.6-3.4,2.8-2.8,4.9l8.6,31.2c0,0,0,0,0,0
		c1.2,4.3,5,7.4,9.4,7.6C-387,54.9-386.8,54.9-386.6,54.9C-386.6,54.9-386.6,54.9-386.6,54.9z"/>
</g>
</svg>
