<?xml version="1.0" encoding="utf-8"?>
<!-- Generator: Adobe Illustrator 25.4.1, SVG Export Plug-In . SVG Version: 6.00 Build 0)  -->
<svg version="1.1" id="Layer_1" xmlns="http://www.w3.org/2000/svg" xmlns:xlink="http://www.w3.org/1999/xlink" x="0px" y="0px"
	 viewBox="0 0 151.3 46.1" style="enable-background:new 0 0 151.3 46.1;" xml:space="preserve">
<style type="text/css">
	.st0{fill:#2382BF;}
	.st1{fill:url(#XMLID_00000012443079103932554690000002599081552512765621_);}
	
		.st2{opacity:0.3;clip-path:url(#XMLID_00000090975053692252171830000000723727145276854691_);fill:url(#XMLID_00000132074643747161537140000018288391147994418322_);}
	.st3{fill:url(#XMLID_00000102520127089396437410000008165708388319513759_);}
	.st4{fill:url(#XMLID_00000047764354955191347510000000189402599396229024_);}
	
		.st5{opacity:0.3;clip-path:url(#XMLID_00000112634989560047757990000017325414024099815329_);fill:url(#XMLID_00000085212288388139972930000001937631825075293321_);}
	.st6{fill:url(#XMLID_00000042738975720654814120000006123336537477392512_);}
	.st7{fill:url(#XMLID_00000023963423460816361760000006132268032803739327_);}
	
		.st8{opacity:0.3;clip-path:url(#XMLID_00000056397970512196055060000007977590241137319339_);fill:url(#XMLID_00000039102624741089214210000011747492531861892740_);}
	.st9{fill:url(#XMLID_00000017475178378911299140000015431823486424054699_);}
	.st10{fill:url(#XMLID_00000106848446260160298630000000797194644823078056_);}
	
		.st11{opacity:0.3;clip-path:url(#XMLID_00000082331472320373515520000007497919303026824081_);fill:url(#XMLID_00000132789050073054251560000004348360040999047091_);}
	.st12{fill:url(#XMLID_00000096018729257748740630000012647373404385248132_);}
</style>
<g id="XMLID_217_">
	<path id="XMLID_263_" class="st0" d="M-249,0c-2.2,0-4,1.8-4,4v14.3c0,1.5-0.4,3-1.1,4.3c-0.5,0.9-1.1,1.7-1.9,2.3
		c-2.8,2.1-6.9,1.6-9.2-1.2l-11.2-15.6c0,0,0,0,0,0C-279.4,3.2-284.8,0-291,0h-5.7c-2.2,0-4,1.8-4,4c0,2.2,1.8,4,4,4h5.7
		c5.1,0,9.2,4.1,9.2,9.1c0,5-4.1,9.1-9.2,9.1h-5.7c-2.2,0-4,1.8-4,4c0,2.2,1.8,4,4,4h5.7c7.2,0,13.4-4.4,16-10.6l3.4,4.8l0.1,0.1
		c2.9,3.7,7.3,5.7,11.7,5.7c3.1,0,6.1-0.9,8.7-2.9c1.8-1.3,3.2-3,4.2-5c1.3-2.5,2-5.2,2-8V4C-245,1.8-246.8,0-249,0z"/>
	<path id="XMLID_262_" class="st0" d="M-308.5,34.3c-2.2,0-4-1.8-4-4V4c0-2.2,1.8-4,4-4c2.2,0,4,1.8,4,4v26.2
		C-304.4,32.5-306.2,34.3-308.5,34.3z"/>
	<path id="XMLID_261_" class="st0" d="M-249,46.1h-16.8c-2.2,0-4-1.8-4-4c0-2.2,1.8-4,4-4h16.8c2.2,0,4,1.8,4,4
		C-245,44.3-246.8,46.1-249,46.1z"/>
	<circle id="XMLID_260_" class="st0" cx="-337.3" cy="19.2" r="6"/>
	<path id="XMLID_259_" class="st0" d="M-337.3,40.3c-5.4,0-10.8-2.1-14.9-6.2c-4-4-6.2-9.3-6.2-14.9s2.2-10.9,6.2-14.9
		c1.6-1.6,4.1-1.6,5.7,0c1.6,1.6,1.6,4.1,0,5.7c-2.5,2.5-3.8,5.7-3.8,9.2s1.4,6.7,3.8,9.2c5.1,5.1,13.3,5.1,18.4,0
		c2.3-2.3,3.6-5.3,3.8-8.5V4c0-2.2,1.8-4,4-4s4,1.8,4,4l0,16.2c-0.2,5.3-2.4,10.2-6.2,13.9C-326.5,38.3-331.9,40.3-337.3,40.3z"/>
	<path id="XMLID_256_" class="st0" d="M-207.1,17.1c0-9.4-7.7-17.1-17.1-17.1c-9.4,0-17.1,7.7-17.1,17.1s7.7,17.1,17.1,17.1
		c1.6,0,3.1-0.2,4.6-0.6c-2.7,2.7-6.4,4.4-10.5,4.4h-1.5c-2.2,0-4,1.8-4,4c0,2.2,1.8,4,4,4h1.5c12.7,0,23.1-10.4,23.1-23.1v-5.1
		L-207.1,17.1z M-233.3,17.1c0-5,4.1-9.1,9.1-9.1c5,0,9.1,4.1,9.1,9.1s-4.1,9.1-9.1,9.1C-229.2,26.3-233.3,22.2-233.3,17.1z"/>
	<g id="XMLID_218_">
		
			<linearGradient id="XMLID_00000160891951983016983110000002095908959961412232_" gradientUnits="userSpaceOnUse" x1="-111.6611" y1="25.5008" x2="-79.751" y2="25.5008" gradientTransform="matrix(0.9998 -1.889905e-02 1.889905e-02 0.9998 -84.3869 5.5251)">
			<stop  offset="0" style="stop-color:#2399D1"/>
			<stop  offset="1" style="stop-color:#194790"/>
		</linearGradient>
		<path id="XMLID_255_" style="fill:url(#XMLID_00000160891951983016983110000002095908959961412232_);" d="M-190.1,28.1l18.2-18.6
			l1.6,1.5c8.7,8.5,8.8,22.4,0.4,31l-12.1,12.4c-2.1,2.1-5.5,2.2-7.7,0.1l0,0C-197.1,47.3-197.3,35.5-190.1,28.1z"/>
		<g id="XMLID_252_">
			<defs>
				<path id="XMLID_253_" d="M-190.1,28.1l18.2-18.6l1.6,1.5c8.7,8.5,8.8,22.4,0.4,31l-12.1,12.4c-2.1,2.1-5.5,2.2-7.7,0.1l0,0
					C-197.1,47.3-197.3,35.5-190.1,28.1z"/>
			</defs>
			<clipPath id="XMLID_00000091698386070603387940000015363795359838800268_">
				<use xlink:href="#XMLID_253_"  style="overflow:visible;"/>
			</clipPath>
			
				<linearGradient id="XMLID_00000097498531152743754710000013096575746005292693_" gradientUnits="userSpaceOnUse" x1="2835.5942" y1="8625.9395" x2="2871.8894" y2="8656.9629" gradientTransform="matrix(-0.8397 -0.5431 0.5431 -0.8397 -2476.8323 8829.8662)">
				<stop  offset="0" style="stop-color:#1A171A"/>
				<stop  offset="0.5711" style="stop-color:#FFFFFF"/>
			</linearGradient>
			
				<path id="XMLID_254_" style="opacity:0.3;clip-path:url(#XMLID_00000091698386070603387940000015363795359838800268_);fill:url(#XMLID_00000097498531152743754710000013096575746005292693_);" d="
				M-177.1,56.1c0,0,8.4-22.2-15.6-28.6c0,0,5.4-10.6,7.5-11.5c2-1,16.9,4.1,17.9,4.7c1,0.6,4.9,16.3,4.8,17.8
				c-0.1,1.6-2.2,8-3.2,10.1C-166.8,50.8-177.1,56.1-177.1,56.1z"/>
		</g>
		
			<linearGradient id="XMLID_00000045617358500323417280000010433517587742367674_" gradientUnits="userSpaceOnUse" x1="-108.0205" y1="2.5545" x2="-65.3786" y2="39.0025" gradientTransform="matrix(0.9998 -1.889905e-02 1.889905e-02 0.9998 -84.3869 5.5251)">
			<stop  offset="0.3021" style="stop-color:#96BE3D"/>
			<stop  offset="0.3919" style="stop-color:#92BC3E"/>
			<stop  offset="0.4836" style="stop-color:#85B53F"/>
			<stop  offset="0.5763" style="stop-color:#70AC42"/>
			<stop  offset="0.6691" style="stop-color:#4FA045"/>
			<stop  offset="0.7406" style="stop-color:#209647"/>
		</linearGradient>
		<path id="XMLID_250_" style="fill:url(#XMLID_00000045617358500323417280000010433517587742367674_);" d="M-159.1,30.9l-5.9,6l0,0
			l-10.9,11.2c0,0,5-8.5-5.4-18.7l0,0l-7-6.7c-8.7-8.5-8.8-22.4-0.4-31l1.6-1.7l27.8,27.3C-155.5,21-155.4,27.1-159.1,30.9z"/>
	</g>
</g>
<g id="XMLID_1_">
	<path id="XMLID_16_" class="st0" d="M109.4,0c-2.2,0-4,1.8-4,4v14.3c0,1.5-0.4,3-1.1,4.3c-0.5,0.9-1.1,1.7-1.9,2.3
		c-2.8,2.1-6.9,1.6-9.2-1.2L82.1,8.1c0,0,0,0,0,0C79,3.2,73.6,0,67.4,0h-5.7c-2.2,0-4,1.8-4,4c0,2.2,1.8,4,4,4h5.7
		c5.1,0,9.2,4.1,9.2,9.1c0,5-4.1,9.1-9.2,9.1h-5.7c-2.2,0-4,1.8-4,4c0,2.2,1.8,4,4,4h5.7c7.2,0,13.4-4.4,16-10.6l3.4,4.8l0.1,0.1
		c2.9,3.7,7.3,5.7,11.7,5.7c3.1,0,6.1-0.9,8.7-2.9c1.8-1.3,3.2-3,4.2-5c1.3-2.5,2-5.2,2-8V4C113.4,1.8,111.6,0,109.4,0z"/>
	<path id="XMLID_15_" class="st0" d="M49.9,34.3c-2.2,0-4-1.8-4-4V4c0-2.2,1.8-4,4-4c2.2,0,4,1.8,4,4v26.2
		C54,32.5,52.2,34.3,49.9,34.3z"/>
	<path id="XMLID_14_" class="st0" d="M109.4,46.1H92.6c-2.2,0-4-1.8-4-4s1.8-4,4-4h16.8c2.2,0,4,1.8,4,4S111.6,46.1,109.4,46.1z"/>
	<circle id="XMLID_13_" class="st0" cx="21.1" cy="19.2" r="6"/>
	<path id="XMLID_12_" class="st0" d="M21.1,40.3c-5.4,0-10.8-2.1-14.9-6.2c-4-4-6.2-9.3-6.2-14.9S2.2,8.3,6.2,4.3
		c1.6-1.6,4.1-1.6,5.7,0c1.6,1.6,1.6,4.1,0,5.7c-2.5,2.5-3.8,5.7-3.8,9.2s1.4,6.7,3.8,9.2c5.1,5.1,13.3,5.1,18.4,0
		c2.3-2.3,3.6-5.3,3.8-8.5V4c0-2.2,1.8-4,4-4s4,1.8,4,4l0,16.2c-0.2,5.3-2.4,10.2-6.2,13.9C31.9,38.3,26.5,40.3,21.1,40.3z"/>
	<path id="XMLID_9_" class="st0" d="M151.3,17.1c0-9.4-7.7-17.1-17.1-17.1c-9.4,0-17.1,7.7-17.1,17.1s7.7,17.1,17.1,17.1
		c1.6,0,3.1-0.2,4.6-0.6c-2.7,2.7-6.4,4.4-10.5,4.4h-1.5c-2.2,0-4,1.8-4,4s1.8,4,4,4h1.5c12.7,0,23.1-10.4,23.1-23.1v-5.1
		L151.3,17.1z M125.1,17.1c0-5,4.1-9.1,9.1-9.1c5,0,9.1,4.1,9.1,9.1s-4.1,9.1-9.1,9.1C129.2,26.3,125.1,22.2,125.1,17.1z"/>
</g>
<g id="XMLID_17_">
	<g id="XMLID_18_">
		
			<linearGradient id="XMLID_00000062185161844599528380000005285225202242694789_" gradientUnits="userSpaceOnUse" x1="463.7951" y1="36.3783" x2="495.7051" y2="36.3783" gradientTransform="matrix(0.9998 -1.889905e-02 1.889905e-02 0.9998 -84.3869 5.5251)">
			<stop  offset="0" style="stop-color:#2399D1"/>
			<stop  offset="1" style="stop-color:#194790"/>
		</linearGradient>
		<path id="XMLID_24_" style="fill:url(#XMLID_00000062185161844599528380000005285225202242694789_);" d="M385.5,28.1l18.2-18.6
			l1.6,1.5c8.7,8.5,8.8,22.4,0.4,31l-12.1,12.4c-2.1,2.1-5.5,2.2-7.7,0.1l0,0C378.4,47.3,378.3,35.5,385.5,28.1z"/>
		<g id="XMLID_21_">
			<defs>
				<path id="XMLID_22_" d="M385.5,28.1l18.2-18.6l1.6,1.5c8.7,8.5,8.8,22.4,0.4,31l-12.1,12.4c-2.1,2.1-5.5,2.2-7.7,0.1l0,0
					C378.4,47.3,378.3,35.5,385.5,28.1z"/>
			</defs>
			<clipPath id="XMLID_00000067206089527305871720000012032947241555663540_">
				<use xlink:href="#XMLID_22_"  style="overflow:visible;"/>
			</clipPath>
			
				<linearGradient id="XMLID_00000142870580527494048560000002735575653935958432_" gradientUnits="userSpaceOnUse" x1="2352.3149" y1="8938.5244" x2="2388.6101" y2="8969.5479" gradientTransform="matrix(-0.8397 -0.5431 0.5431 -0.8397 -2476.8323 8829.8662)">
				<stop  offset="0" style="stop-color:#1A171A"/>
				<stop  offset="0.5711" style="stop-color:#FFFFFF"/>
			</linearGradient>
			
				<path id="XMLID_23_" style="opacity:0.3;clip-path:url(#XMLID_00000067206089527305871720000012032947241555663540_);fill:url(#XMLID_00000142870580527494048560000002735575653935958432_);" d="
				M398.5,56.1c0,0,8.4-22.2-15.6-28.6c0,0,5.4-10.6,7.5-11.5s16.9,4.1,17.9,4.7s4.9,16.3,4.8,17.8c-0.1,1.6-2.2,8-3.2,10.1
				C408.8,50.8,398.5,56.1,398.5,56.1z"/>
		</g>
		
			<linearGradient id="XMLID_00000027582987857544325960000017266023611146429325_" gradientUnits="userSpaceOnUse" x1="467.4357" y1="13.432" x2="510.0775" y2="49.88" gradientTransform="matrix(0.9998 -1.889905e-02 1.889905e-02 0.9998 -84.3869 5.5251)">
			<stop  offset="0.3021" style="stop-color:#96BE3D"/>
			<stop  offset="0.3919" style="stop-color:#92BC3E"/>
			<stop  offset="0.4836" style="stop-color:#85B53F"/>
			<stop  offset="0.5763" style="stop-color:#70AC42"/>
			<stop  offset="0.6691" style="stop-color:#4FA045"/>
			<stop  offset="0.7406" style="stop-color:#209647"/>
		</linearGradient>
		<path id="XMLID_19_" style="fill:url(#XMLID_00000027582987857544325960000017266023611146429325_);" d="M416.5,30.9l-5.9,6l0,0
			l-10.9,11.2c0,0,5-8.5-5.4-18.7l0,0l-7-6.7c-8.7-8.5-8.8-22.4-0.4-31l1.6-1.7l27.8,27.3C420.1,21,420.2,27.1,416.5,30.9z"/>
	</g>
</g>
<g id="XMLID_43_">
	<g id="XMLID_44_">
		
			<linearGradient id="XMLID_00000030476905827512569850000003379593630496551586_" gradientUnits="userSpaceOnUse" x1="459.9964" y1="237.3424" x2="491.9064" y2="237.3424" gradientTransform="matrix(0.9998 -1.889905e-02 1.889905e-02 0.9998 -84.3869 5.5251)">
			<stop  offset="0" style="stop-color:#2399D1"/>
			<stop  offset="1" style="stop-color:#194790"/>
		</linearGradient>
		<path id="XMLID_50_" style="fill:url(#XMLID_00000030476905827512569850000003379593630496551586_);" d="M385.5,229.1l18.2-18.6
			l1.6,1.5c8.7,8.5,8.8,22.4,0.4,31l-12.1,12.4c-2.1,2.1-5.5,2.2-7.7,0.1l0,0C378.4,248.3,378.3,236.5,385.5,229.1z"/>
		<g id="XMLID_47_">
			<defs>
				<path id="XMLID_48_" d="M385.5,229.1l18.2-18.6l1.6,1.5c8.7,8.5,8.8,22.4,0.4,31l-12.1,12.4c-2.1,2.1-5.5,2.2-7.7,0.1l0,0
					C378.4,248.3,378.3,236.5,385.5,229.1z"/>
			</defs>
			<clipPath id="XMLID_00000169556372691004937570000010501126033658601145_">
				<use xlink:href="#XMLID_48_"  style="overflow:visible;"/>
			</clipPath>
			
				<linearGradient id="XMLID_00000145751582252940900980000017098413068394836899_" gradientUnits="userSpaceOnUse" x1="2243.1523" y1="8769.751" x2="2279.4475" y2="8800.7744" gradientTransform="matrix(-0.8397 -0.5431 0.5431 -0.8397 -2476.8323 8829.8662)">
				<stop  offset="0" style="stop-color:#1A171A"/>
				<stop  offset="0.5711" style="stop-color:#FFFFFF"/>
			</linearGradient>
			
				<path id="XMLID_49_" style="opacity:0.3;clip-path:url(#XMLID_00000169556372691004937570000010501126033658601145_);fill:url(#XMLID_00000145751582252940900980000017098413068394836899_);" d="
				M398.5,257.1c0,0,8.4-22.2-15.6-28.6c0,0,5.4-10.6,7.5-11.5c2-1,16.9,4.1,17.9,4.7c1,0.6,4.9,16.3,4.8,17.8
				c-0.1,1.6-2.2,8-3.2,10.1C408.8,251.8,398.5,257.1,398.5,257.1z"/>
		</g>
		
			<linearGradient id="XMLID_00000092427144667002970490000009567504584041277106_" gradientUnits="userSpaceOnUse" x1="463.637" y1="214.3961" x2="506.2788" y2="250.8441" gradientTransform="matrix(0.9998 -1.889905e-02 1.889905e-02 0.9998 -84.3869 5.5251)">
			<stop  offset="0.3021" style="stop-color:#96BE3D"/>
			<stop  offset="0.3919" style="stop-color:#92BC3E"/>
			<stop  offset="0.4836" style="stop-color:#85B53F"/>
			<stop  offset="0.5763" style="stop-color:#70AC42"/>
			<stop  offset="0.6691" style="stop-color:#4FA045"/>
			<stop  offset="0.7406" style="stop-color:#209647"/>
		</linearGradient>
		<path id="XMLID_45_" style="fill:url(#XMLID_00000092427144667002970490000009567504584041277106_);" d="M416.5,231.9l-5.9,6l0,0
			l-10.9,11.2c0,0,5-8.5-5.4-18.7l0,0l-7-6.7c-8.7-8.5-8.8-22.4-0.4-31l1.6-1.7l27.8,27.3C420.1,222,420.2,228.1,416.5,231.9z"/>
	</g>
</g>
<g id="XMLID_132_">
	<g id="XMLID_146_">
		
			<linearGradient id="XMLID_00000021094960775814144920000018154018027965727117_" gradientUnits="userSpaceOnUse" x1="-303.3299" y1="222.8703" x2="-271.5571" y2="222.8703" gradientTransform="matrix(0.9998 -1.889905e-02 1.889905e-02 0.9998 -84.3869 5.5251)">
			<stop  offset="0" style="stop-color:#2399D1"/>
			<stop  offset="1" style="stop-color:#194790"/>
		</linearGradient>
		<path id="XMLID_152_" style="fill:url(#XMLID_00000021094960775814144920000018154018027965727117_);" d="M-378,229.1l18.1-18.5
			l1.5,1.5c8.6,8.4,8.8,22.3,0.4,30.9l-12,12.3c-2.1,2.1-5.5,2.2-7.6,0.1l0,0C-385,248.2-385.2,236.5-378,229.1z"/>
		<g id="XMLID_149_">
			<defs>
				<path id="XMLID_150_" d="M-378,229.1l18.1-18.5l1.5,1.5c8.6,8.4,8.8,22.3,0.4,30.9l-12,12.3c-2.1,2.1-5.5,2.2-7.6,0.1l0,0
					C-385,248.2-385.2,236.5-378,229.1z"/>
			</defs>
			<clipPath id="XMLID_00000013880767321246286090000012498094020004595095_">
				<use xlink:href="#XMLID_150_"  style="overflow:visible;"/>
			</clipPath>
			
				<linearGradient id="XMLID_00000003784995835224736150000004621289297529651354_" gradientUnits="userSpaceOnUse" x1="2884.3462" y1="8355.1494" x2="2920.4851" y2="8386.0391" gradientTransform="matrix(-0.8397 -0.5431 0.5431 -0.8397 -2476.8323 8829.8662)">
				<stop  offset="0" style="stop-color:#1A171A"/>
				<stop  offset="0.5711" style="stop-color:#FFFFFF"/>
			</linearGradient>
			
				<path id="XMLID_151_" style="opacity:0.3;clip-path:url(#XMLID_00000013880767321246286090000012498094020004595095_);fill:url(#XMLID_00000003784995835224736150000004621289297529651354_);" d="
				M-365.1,257c0,0,8.3-22.1-15.6-28.4c0,0,5.4-10.5,7.4-11.5c2-1,16.8,4,17.8,4.7c1,0.6,4.9,16.2,4.8,17.7
				c-0.1,1.6-2.2,7.9-3.2,10.1C-354.8,251.7-365.1,257-365.1,257z"/>
		</g>
		
			<linearGradient id="XMLID_00000067228199274438422780000017472589021451877042_" gradientUnits="userSpaceOnUse" x1="-299.7049" y1="200.0227" x2="-257.2466" y2="236.3139" gradientTransform="matrix(0.9998 -1.889905e-02 1.889905e-02 0.9998 -84.3869 5.5251)">
			<stop  offset="0.3072" style="stop-color:#96BE3D"/>
			<stop  offset="0.3959" style="stop-color:#92BC3E"/>
			<stop  offset="0.4866" style="stop-color:#85B53F"/>
			<stop  offset="0.5782" style="stop-color:#70AC42"/>
			<stop  offset="0.6699" style="stop-color:#4FA045"/>
			<stop  offset="0.7406" style="stop-color:#209647"/>
		</linearGradient>
		<path id="XMLID_147_" style="fill:url(#XMLID_00000067228199274438422780000017472589021451877042_);" d="M-347.2,231.9l-5.9,6
			l0,0l-10.9,11.1c0,0,5-8.5-5.4-18.6l0,0l-6.9-6.7c-8.6-8.4-8.8-22.3-0.4-30.9l1.6-1.7l27.7,27.2
			C-343.5,222-343.5,228.1-347.2,231.9z"/>
	</g>
	<path id="XMLID_133_" class="st0" d="M-287.5,203.9c2.7,0,4.9,2.2,4.9,4.9c0,2.7-2.2,4.9-4.9,4.9c-2.7,0-4.9-2.2-4.9-4.9
		C-292.4,206.1-290.2,203.9-287.5,203.9z M-169.6,243.9v-13.2c0-9.5-7.6-17.2-17-17.2c-9.4,0-17,7.7-17,17.2v13.2c0,2.2,1.8,4,4,4
		s4-1.8,4-4v-13.2c0-5.1,4-9.2,9-9.2c5,0,9,4.1,9,9.2v13.2c0,2.2,1.8,4,4,4S-169.6,246.1-169.6,243.9z M-245.4,207.9v21.3v2.8
		c0,0.1,0,0.1,0,0.2c0,0.3-0.1,0.6-0.1,0.9c-0.5,3.6-2.1,7-4.9,9.7c-3.4,3.4-7.8,5-12.2,5c-4.7,0-9.3-1.9-12.7-5.6
		c-2.8-3.1-4.5-7.2-4.5-11.4c-0.1-4.7,1.7-9.1,5-12.4c3.3-3.3,7.6-5,12.2-5c3.3,0,6.4,0.9,9.1,2.6v-8c0-2.2,1.7-4,3.8-4.1
		C-247.3,203.8-245.4,205.6-245.4,207.9z M-256.1,237.2c1.5-1.5,2.4-3.4,2.6-5.4c0.1-0.7,0.1-1.5,0-2.2c-0.2-2-1.1-3.9-2.6-5.4
		c-1.7-1.7-4-2.7-6.5-2.7c-2.5,0-4.8,1-6.5,2.7h0c-1.7,1.7-2.7,4-2.7,6.5s1,4.8,2.7,6.5C-265.5,240.8-259.7,240.8-256.1,237.2z
		 M-212.3,242.9c6.7-6.7,6.7-17.6,0-24.4c-3.3-3.3-7.6-5-12.2-5c-4.6,0-8.9,1.8-12.2,5s-5,7.6-5,12.2c0,4.6,1.8,8.9,5,12.2
		c3.4,3.4,7.8,5,12.2,5C-220.1,247.9-215.7,246.2-212.3,242.9z M-218,224.2c3.6,3.6,3.6,9.4,0,13c-3.6,3.6-9.4,3.6-13,0
		c-1.7-1.7-2.7-4-2.7-6.5s1-4.8,2.7-6.5l0,0c1.7-1.7,4-2.7,6.5-2.7C-222,221.5-219.7,222.5-218,224.2z M-283.5,243.9v-22.5
		c0-2.2-1.8-4-4-4c-2.2,0-4,1.8-4,4v22.5c0,2.2,1.8,4,4,4C-285.3,247.9-283.5,246.1-283.5,243.9z M-131.5,230.6c0,2.2-1.8,4-4,4
		H-157c0.4,0.9,1,1.8,1.8,2.6c1.6,1.6,3.7,2.5,5.9,2.7h7.1c2.2,0,4,1.8,4,4s-1.8,4-4,4l-7.4,0c-4.3-0.2-8.3-2-11.3-5
		c-6.7-6.7-6.7-17.6,0-24.4c3.3-3.3,7.6-5,12.2-5c4.6,0,8.9,1.8,12.2,5c3.1,3.1,4.9,7.2,5,11.6c0,0.1,0,0.2,0,0.3
		C-131.5,230.5-131.5,230.5-131.5,230.6z M-155.2,224.2c-0.7,0.7-1.3,1.5-1.7,2.3h16.3c-0.4-0.8-1-1.6-1.7-2.3
		c-1.7-1.7-4-2.7-6.5-2.7S-153.4,222.5-155.2,224.2z M-314,247.8c4.6,0,8.7-3.1,9.9-7.6c0,0,0,0,0,0l8.6-31.1
		c0.6-2.1-0.7-4.4-2.8-4.9c-2.1-0.6-4.4,0.7-5,2.8l-8.6,31.1c-0.3,1-1.2,1.8-2.2,1.8c-0.1,0-0.1,0-0.1,0c-0.9-0.1-1.8-0.8-2.1-1.8
		l-8.6-31.1c-0.6-2.1-2.8-3.4-5-2.8c-2.1,0.6-3.4,2.8-2.8,4.9l8.6,31.2c0,0,0,0,0,0c1.2,4.3,5,7.4,9.4,7.6
		C-314.5,247.8-314.3,247.8-314,247.8C-314.1,247.8-314.1,247.8-314,247.8z"/>
</g>
<g id="XMLID_2_">
	<path id="XMLID_3_" class="st0" d="M20.3,202c2.7,0,4.9,2.2,4.9,4.9c0,2.7-2.2,4.9-4.9,4.9s-4.9-2.2-4.9-4.9
		C15.4,204.2,17.5,202,20.3,202z M138.2,242v-13.2c0-9.5-7.6-17.2-17-17.2c-9.4,0-17,7.7-17,17.2V242c0,2.2,1.8,4,4,4s4-1.8,4-4
		v-13.2c0-5.1,4-9.2,9-9.2c5,0,9,4.1,9,9.2V242c0,2.2,1.8,4,4,4C136.4,246,138.2,244.2,138.2,242z M62.4,206.1v21.3v2.8
		c0,0.1,0,0.1,0,0.2c0,0.3-0.1,0.6-0.1,0.9c-0.5,3.6-2.1,7-4.9,9.7c-3.4,3.4-7.8,5-12.2,5c-4.7,0-9.3-1.9-12.7-5.6
		c-2.8-3.1-4.5-7.2-4.5-11.4c-0.1-4.7,1.7-9.1,5-12.4c3.3-3.3,7.6-5,12.2-5c3.3,0,6.4,0.9,9.1,2.6l0-8c0-2.2,1.7-4,3.8-4.1
		C60.5,201.9,62.4,203.8,62.4,206.1z M51.7,235.3c1.5-1.5,2.4-3.4,2.6-5.4c0.1-0.7,0.1-1.5,0-2.2c-0.2-2-1.1-3.9-2.6-5.4
		c-1.7-1.7-4-2.7-6.5-2.7s-4.8,1-6.5,2.7h0c-1.7,1.7-2.7,4-2.7,6.5c0,2.5,1,4.8,2.7,6.5C42.3,238.9,48.1,238.9,51.7,235.3z
		 M95.5,241c6.7-6.7,6.7-17.6,0-24.4c-3.3-3.3-7.6-5-12.2-5c-4.6,0-8.9,1.8-12.2,5c-3.3,3.3-5,7.6-5,12.2c0,4.6,1.8,8.9,5,12.2
		c3.4,3.4,7.8,5,12.2,5C87.7,246,92.1,244.4,95.5,241z M89.8,222.3c3.6,3.6,3.6,9.4,0,13c-3.6,3.6-9.4,3.6-13,0
		c-1.7-1.7-2.7-4-2.7-6.5c0-2.5,1-4.8,2.7-6.5l0,0c1.7-1.7,4-2.7,6.5-2.7S88,220.6,89.8,222.3z M24.3,242v-22.5c0-2.2-1.8-4-4-4
		s-4,1.8-4,4V242c0,2.2,1.8,4,4,4S24.3,244.2,24.3,242z M176.3,228.7c0,2.2-1.8,4-4,4h-21.5c0.4,0.9,1,1.8,1.8,2.6
		c1.6,1.6,3.7,2.5,5.9,2.7h7.1c2.2,0,4,1.8,4,4s-1.8,4-4,4l-7.4,0c-4.3-0.2-8.3-2-11.3-5c-6.7-6.7-6.7-17.6,0-24.4
		c3.3-3.3,7.6-5,12.2-5c4.6,0,8.9,1.8,12.2,5c3.1,3.1,4.9,7.2,5,11.6c0,0.1,0,0.2,0,0.3C176.3,228.6,176.3,228.6,176.3,228.7z
		 M152.6,222.3c-0.7,0.7-1.3,1.5-1.7,2.3h16.3c-0.4-0.8-1-1.6-1.7-2.3c-1.7-1.7-4-2.7-6.5-2.7C156.6,219.6,154.3,220.6,152.6,222.3z
		 M-6.3,245.9c4.6,0,8.7-3.1,9.9-7.6c0,0,0,0,0,0l8.6-31.1c0.6-2.1-0.7-4.4-2.8-4.9c-2.1-0.6-4.4,0.7-5,2.8l-8.6,31.1
		c-0.3,1-1.2,1.8-2.2,1.8c-0.1,0-0.1,0-0.1,0c-0.9-0.1-1.8-0.8-2.1-1.8l-8.6-31.1c-0.6-2.1-2.8-3.4-5-2.8c-2.1,0.6-3.4,2.8-2.8,4.9
		l8.6,31.2c0,0,0,0,0,0c1.2,4.3,5,7.4,9.4,7.6C-6.7,245.9-6.5,245.9-6.3,245.9C-6.3,245.9-6.3,245.9-6.3,245.9z"/>
</g>
</svg>
