<svg xmlns="http://www.w3.org/2000/svg" width="179" height="60" fill="none"  xmlns:v="https://vecta.io/nano"><path d="M178.105 51.215c0 4.374-3.687 7.935-8 7.935h-162c-4.312 0-8-3.626-8-8v-43c0-4.374 3.688-8 8-8h162c4.313 0 8 3.626 8 8v43.065z" fill="#ebebeb"/><g fill="#666"><path d="M68.197 16.848l.402 1.284.146.572.128.591.097.578a4.07 4.07 0 0 1 .037.523 3.95 3.95 0 0 1-.158 1.114 4.79 4.79 0 0 1-.438 1.059c-.187.341-.41.668-.67.98s-.548.613-.864.889a9.13 9.13 0 0 1-1.017.767 10.26 10.26 0 0 1-1.12.645l-1.108-1.54.889-.499a9.56 9.56 0 0 0 .852-.591 8.2 8.2 0 0 0 .767-.663 5.53 5.53 0 0 0 .621-.706 3.48 3.48 0 0 0 .42-.73 1.88 1.88 0 0 0 .152-.718c0-.17-.024-.355-.073-.554l-.189-.639-.28-.73-.353-.828 1.759-.804zm-1.047-3.701l1.351 1.351-1.351 1.351-1.351-1.351 1.351-1.351zm2.763 8.181l.061-1.035.049-1.059.031-1.017v-.244l-.012-.663-.073-1.516-.067-1.163-.067-.883-.067-.7-.079-.59-.091-.578 1.881-.621.213 1.643.128 1.589.055 1.406.018 1.114-.006.907-.012 1.01-.024 1.059-.055 1.047-1.881.292zm19.771-.018c-.67 0-1.238-.109-1.704-.329s-.84-.584-1.132-1.096c-.576.491-1.274.854-2.094 1.09s-1.769.353-2.861.353a13.92 13.92 0 0 1-1.838-.128 8.88 8.88 0 0 1-1.577-.353c-.475-.158-.891-.363-1.248-.603a2.86 2.86 0 0 1-.84-.858 2.41 2.41 0 0 1-.274-.749 3.41 3.41 0 0 1-.061-.663l.006-.256c.02-.329.083-.678.189-1.047s.266-.759.469-1.157l1.449.84-.225.463a2.31 2.31 0 0 0-.158.469 2.13 2.13 0 0 0-.055.493c0 .008.002.016.006.024a2.35 2.35 0 0 0 .091.615c.101.174.282.323.542.444s.58.221.95.298.775.134 1.217.171l1.357.055 1.211-.043c.381-.033.732-.081 1.053-.146a5.21 5.21 0 0 0 .877-.262c.264-.11.489-.241.676-.396.17-.138.31-.29.42-.457a3.25 3.25 0 0 0 .28-.523c.077-.187.14-.382.189-.584l.152-.615 1.704.432-.25 1.29a1.01 1.01 0 0 0-.024.219.81.81 0 0 0 .055.298.94.94 0 0 0 .28.414 1.52 1.52 0 0 0 .511.274c.207.069.442.097.706.097.134 0 .26.024.377.073a.88.88 0 0 1 .304.207.88.88 0 0 1 .207.304.91.91 0 0 1 .079.377.91.91 0 0 1-.079.377.88.88 0 0 1-.207.304.88.88 0 0 1-.304.207.97.97 0 0 1-.377.073h-.049zm-4.985-6.355L83.53 16.13l-1.157-1.156-1.144 1.144-1.181-1.175 1.169-1.175 1.156 1.156 1.144-1.144 1.181 1.175zm4.084 5.393c0-.134.026-.26.079-.377a.88.88 0 0 1 .207-.304.87.87 0 0 1 .31-.207.97.97 0 0 1 .377-.073l.554-.006.712-.037.767-.061.749-.097.645-.14a1.7 1.7 0 0 0 .457-.195 8.5 8.5 0 0 1-.937.055 3.09 3.09 0 0 1-.195-.006 5.14 5.14 0 0 1-.925-.097c-.272-.057-.505-.134-.7-.231a1.35 1.35 0 0 1-.438-.347v.006c-.109-.138-.213-.323-.31-.554s-.14-.517-.14-.858c0-.183.012-.353.037-.511.122-.69.365-1.26.73-1.71l-.006.006c.219-.292.467-.509.743-.651s.566-.219.87-.219.613.075.913.225a2.94 2.94 0 0 1 .816.609c.175.199.331.424.469.676s.262.519.359.803a5.28 5.28 0 0 1 .231.889 5 5 0 0 1 .085.919l-.006.28-.018.256a3.02 3.02 0 0 1-.323 1.096c-.166.304-.379.564-.639.779s-.55.39-.883.523a6.1 6.1 0 0 1-1.071.317c-.381.077-.781.13-1.199.158l-1.254.049h-.103a.91.91 0 0 1-.377-.079c-.118-.049-.219-.116-.304-.201s-.152-.187-.201-.304-.079-.244-.079-.377zm3.573-4.681h-.018a.49.49 0 0 0-.262.079 1.14 1.14 0 0 0-.268.237 1.42 1.42 0 0 0-.195.335 1.05 1.05 0 0 0-.073.384.58.58 0 0 0 .079.304c.028.049.085.091.17.128s.193.061.311.085l.389.055.396.024h.347l.225-.018a4.89 4.89 0 0 0-.146-.554c-.057-.187-.13-.357-.219-.511s-.195-.282-.316-.383-.262-.156-.42-.164zm-.237-5.405l1.351 1.351-1.351 1.351-1.351-1.351 1.351-1.351zm7.183 11.048c-.499 0-.927-.063-1.284-.189s-.665-.31-.925-.566a1.98 1.98 0 0 1-.377-.511 2.64 2.64 0 0 1-.189-.524 3.25 3.25 0 0 1-.067-.493l-.006-.396v-.091l.012-.645.012-.998-.006-1.26-.037-1.37-.079-1.321a9.73 9.73 0 0 0-.14-1.102l1.82-.554c.053.268.095.584.128.95l.079 1.138.049 1.199.024 1.12v.122l-.03.767-.067.852-.012.39.018.42a2.62 2.62 0 0 0 .164.767c.037.093.081.164.134.213a.55.55 0 0 0 .195.11 1.08 1.08 0 0 0 .237.037l.292.006h.055a.9.9 0 0 1 .371.079c.118.053.219.124.304.213a.96.96 0 0 1 .213.304c.053.118.079.241.079.371a.91.91 0 0 1-.079.377.96.96 0 0 1-.213.304.88.88 0 0 1-.304.207.96.96 0 0 1-.371.073zm4.61 2.003l-1.168 1.175-1.157-1.157-1.144 1.144-1.181-1.175 1.169-1.175 1.156 1.157 1.145-1.144 1.18 1.175zm-5.886-2.964c0-.134.026-.26.079-.377s.116-.219.201-.304a.88.88 0 0 1 .304-.207c.118-.049.244-.073.377-.073h.968l.603-.024c.219-.016.43-.043.633-.079a3.13 3.13 0 0 0 .547-.146.84.84 0 0 0 .366-.244c.044-.069.067-.162.067-.28 0-.174-.043-.381-.128-.621l-.292-.73-.353-.712-.287-.566 1.735-.852a5.78 5.78 0 0 1 .365.779l.317.919a9.2 9.2 0 0 1 .225.925 4.28 4.28 0 0 1 .085.785 2.83 2.83 0 0 1-.219 1.126 2.62 2.62 0 0 1-.7.95 2.85 2.85 0 0 1-1.065.548 3.21 3.21 0 0 1-.456.079l-.554.043-.53.018-.389.006h-.937c-.134 0-.26-.024-.377-.073a.88.88 0 0 1-.304-.207c-.085-.085-.152-.187-.201-.304s-.079-.244-.079-.377zm10.188-3.5l.402 1.284.146.572.128.591.097.578a4.13 4.13 0 0 1 .037.523c0 .381-.053.753-.159 1.114a4.75 4.75 0 0 1-.438 1.059c-.187.341-.41.668-.669.98s-.548.613-.865.889a9.13 9.13 0 0 1-1.016.767 11.12 11.12 0 0 1-1.12.645l-1.108-1.54.889-.499a9.56 9.56 0 0 0 .852-.591c.272-.212.531-.432.767-.663s.446-.467.621-.706.318-.483.42-.73a1.86 1.86 0 0 0 .152-.718 2.38 2.38 0 0 0-.073-.554 5.59 5.59 0 0 0-.189-.639l-.28-.73-.353-.828 1.759-.804zm1.878 1.619a5.58 5.58 0 0 0 .596.329l.706.304.707.219c.227.057.424.085.59.085l.237-.006.305-.037.328-.073c.11-.033.209-.073.299-.122a.77.77 0 0 0 .225-.17c.057-.069.087-.15.091-.244v-.018c0-.154-.046-.327-.14-.517a3.71 3.71 0 0 0-.408-.621 6.05 6.05 0 0 0-.584-.657l-.682-.639-.706-.572-.651-.457 1.077-1.601c.394.276.784.584 1.169.925s.749.704 1.077 1.09.613.777.853 1.187.411.82.517 1.23c.032.118.055.237.067.359l.018.341c0 .377-.073.724-.219 1.041a2.46 2.46 0 0 1-.615.816 2.78 2.78 0 0 1-.937.53 3.68 3.68 0 0 1-1.205.189c-.033 0-.065-.002-.098-.006h-.097c-.28 0-.568-.03-.864-.091a6.69 6.69 0 0 1-.871-.231 7.82 7.82 0 0 1-.834-.341l-.749-.408.798-1.832zm-9.695 12.68a1.49 1.49 0 0 0-1.484 1.484v5.313c0 .574-.144 1.101-.383 1.627a3.14 3.14 0 0 1-.718.861c-1.053.814-2.585.574-3.398-.479l-4.164-5.839c-1.149-1.819-3.159-3.015-5.456-3.015h-2.202a1.49 1.49 0 0 0-1.484 1.484 1.49 1.49 0 0 0 1.484 1.484h2.106c1.915 0 3.446 1.532 3.446 3.398s-1.532 3.398-3.446 3.398h-2.106a1.49 1.49 0 0 0-1.484 1.484 1.49 1.49 0 0 0 1.484 1.484h2.106c2.68 0 4.978-1.627 5.935-3.925l1.244 1.771.048.048a5.55 5.55 0 0 0 4.355 2.106c1.149 0 2.297-.335 3.255-1.101.67-.479 1.197-1.101 1.58-1.867.478-.909.718-1.962.718-3.015v-5.217c.047-.814-.623-1.484-1.436-1.484zM78.237 43.88a1.49 1.49 0 0 1-1.484-1.484v-9.764a1.49 1.49 0 0 1 1.484-1.484 1.49 1.49 0 0 1 1.484 1.484v9.764a1.49 1.49 0 0 1-1.484 1.484zm22.112 4.403h-6.222a1.49 1.49 0 0 1-1.484-1.484 1.49 1.49 0 0 1 1.484-1.484h6.27a1.49 1.49 0 0 1 1.483 1.484c0 .814-.67 1.484-1.531 1.484zm-32.881-7.754a2.25 2.25 0 0 0 2.249-2.249 2.25 2.25 0 0 0-2.249-2.25 2.25 2.25 0 0 0-2.249 2.25 2.25 2.25 0 0 0 2.249 2.249z"/><path d="M67.468 46.177a7.83 7.83 0 0 1-5.552-2.297c-1.484-1.484-2.297-3.494-2.297-5.6a7.78 7.78 0 0 1 2.297-5.552c.574-.574 1.532-.574 2.154 0 .574.574.574 1.532 0 2.154-.909.909-1.436 2.154-1.436 3.446s.527 2.537 1.436 3.446c1.914 1.867 4.978 1.914 6.844 0a4.96 4.96 0 0 0 1.436-3.159v-5.983a1.49 1.49 0 0 1 1.484-1.484 1.49 1.49 0 0 1 1.484 1.484v6.031c-.096 1.962-.909 3.781-2.297 5.169-1.532 1.579-3.542 2.345-5.552 2.345zm48.531-8.663c0-3.542-2.871-6.366-6.365-6.366s-6.366 2.872-6.366 6.366 2.872 6.366 6.366 6.366a6.46 6.46 0 0 0 1.675-.239c-1.005 1.005-2.393 1.627-3.925 1.627h-.574a1.49 1.49 0 0 0-1.484 1.484 1.49 1.49 0 0 0 1.484 1.484h.574c4.739 0 8.615-3.877 8.615-8.615v-1.914-.191zm-9.763 0a3.41 3.41 0 0 1 3.398-3.398c1.867 0 3.398 1.532 3.398 3.398s-1.532 3.398-3.398 3.398-3.398-1.532-3.398-3.398z"/></g><path d="M139.085 31.611c2.608-2.608 10.676-11.002 10.676-11.002l.897.896c5.134 4.971 5.216 13.203.244 18.256l-7.09 7.335c-1.223 1.223-3.26 1.304-4.483.082 0 0 1.304 1.304 0 0-3.585-3.504-5.297-10.513-.244-15.566z" fill="url(#A)"/><path d="M147.398 43.428c1.711-7.742-8.313-11.817-8.313-11.817l4.401-4.482 9.209 10.839-5.297 5.46z" fill="url(#B)"/><path d="M157.341 33.241l-3.505 3.586-6.438 6.601s2.934-5.053-3.178-11.002l-4.075-3.993c-5.135-4.971-5.216-13.203-.245-18.256l.978-.978 16.3 16.055c2.282 2.119 2.282 5.786.163 7.987z" fill="url(#C)"/><defs><linearGradient id="A" x1="135.806" y1="34.552" x2="154.624" y2="34.196" gradientUnits="userSpaceOnUse"><stop stop-color="#2198d1"/><stop offset="1" stop-color="#1a488d"/></linearGradient><linearGradient id="B" x1="142.009" y1="32.334" x2="154.928" y2="43.377" gradientUnits="userSpaceOnUse"><stop stop-color="#231f20" stop-opacity=".1"/><stop offset="1" stop-color="#231f20" stop-opacity=".5"/></linearGradient><linearGradient id="C" x1="137.705" y1="20.994" x2="163.247" y2="42.004" gradientUnits="userSpaceOnUse"><stop stop-color="#8dc63f"/><stop offset=".175" stop-color="#89c540"/><stop offset=".353" stop-color="#7cc242"/><stop offset=".532" stop-color="#64bc46"/><stop offset=".712" stop-color="#36b44a"/><stop offset=".89" stop-color="#00ab4e"/><stop offset="1" stop-color="#00a651"/></linearGradient></defs></svg>