<svg xmlns="http://www.w3.org/2000/svg" xmlns:xlink="http://www.w3.org/1999/xlink" width="178" height="59" fill="none" xmlns:v="https://vecta.io/nano"><path d="M178 51.066c0 4.374-3.688 7.935-8 7.935H8c-4.312 0-8-3.626-8-8V8c0-4.374 3.688-8 8-8h162c4.312 0 8 3.626 8 8v43.066z" fill="#ebebeb"/><path d="M68.197 18.904l.402 1.284.146.572.128.59.097.578a4.07 4.07 0 0 1 .037.524 3.95 3.95 0 0 1-.158 1.114c-.101.365-.248.718-.438 1.059s-.41.668-.67.98-.548.613-.864.889a9.13 9.13 0 0 1-1.016.767 10.26 10.26 0 0 1-1.12.645l-1.108-1.54.889-.499a9.65 9.65 0 0 0 .852-.591 8.2 8.2 0 0 0 .767-.663c.239-.231.446-.467.621-.706s.319-.483.42-.73.152-.483.152-.718c0-.171-.024-.355-.073-.554a5.51 5.51 0 0 0-.189-.639l-.28-.73-.353-.828 1.759-.803zm-1.047-3.701l1.351 1.351-1.351 1.351-1.351-1.351 1.351-1.351zm2.763 8.181l.061-1.035.049-1.059.03-1.017v-.243l-.012-.663-.073-1.516-.067-1.163-.067-.883-.067-.7-.079-.59-.091-.578 1.881-.621.213 1.643.128 1.589.055 1.406.018 1.114-.006.907-.012 1.01-.024 1.059-.055 1.047-1.881.292zm19.771-.018c-.669 0-1.238-.11-1.704-.329s-.84-.584-1.132-1.096c-.576.491-1.274.854-2.094 1.09s-1.769.353-2.861.353c-.645-.004-1.258-.047-1.838-.128s-1.102-.195-1.577-.353-.891-.363-1.248-.603a2.86 2.86 0 0 1-.84-.858c-.126-.215-.217-.465-.274-.749-.041-.207-.061-.428-.061-.663l.006-.256c.02-.329.083-.678.189-1.047a6.72 6.72 0 0 1 .469-1.157l1.449.84-.225.463c-.069.15-.122.306-.158.469-.036.154-.055.319-.055.493 0 .008.002.016.006.024a2.35 2.35 0 0 0 .091.615c.101.174.282.323.542.444s.58.221.95.298.775.134 1.217.171l1.357.055 1.211-.043a9.26 9.26 0 0 0 1.053-.146 5.2 5.2 0 0 0 .876-.262 2.65 2.65 0 0 0 .676-.396c.17-.138.31-.29.42-.457s.203-.341.28-.523.14-.381.189-.584l.152-.615 1.704.432-.25 1.29a1.01 1.01 0 0 0-.024.219.81.81 0 0 0 .055.298.94.94 0 0 0 .28.414c.134.114.304.205.511.274s.442.097.706.097c.134 0 .26.024.377.073a.88.88 0 0 1 .304.207.88.88 0 0 1 .207.304.91.91 0 0 1 .079.377.91.91 0 0 1-.079.377.88.88 0 0 1-.207.304.88.88 0 0 1-.304.207c-.118.049-.244.073-.377.073h-.049zm-4.985-6.355l-1.169 1.175-1.157-1.156-1.144 1.144-1.181-1.175 1.169-1.175 1.156 1.157 1.144-1.144 1.181 1.175zm4.084 5.393a.91.91 0 0 1 .079-.377.88.88 0 0 1 .207-.304.87.87 0 0 1 .31-.207c.118-.049.243-.073.377-.073l.554-.006.712-.037.767-.061.749-.097.645-.14c.195-.057.347-.122.457-.195-.333.037-.645.055-.937.055-.065 0-.13-.002-.195-.006a5.14 5.14 0 0 1-.925-.097c-.272-.057-.505-.134-.7-.231s-.337-.217-.438-.347v.006a2.38 2.38 0 0 1-.31-.554c-.093-.231-.14-.517-.14-.858 0-.183.012-.353.036-.511.122-.69.365-1.26.73-1.71l-.006.006c.219-.292.467-.509.743-.651s.566-.219.87-.219a2.02 2.02 0 0 1 .913.225c.3.15.572.353.816.609a3.76 3.76 0 0 1 .469.676c.142.252.262.519.359.803a5.28 5.28 0 0 1 .231.889 5 5 0 0 1 .085.919l-.006.28-.018.256c-.049.422-.156.787-.323 1.096a2.65 2.65 0 0 1-.639.779c-.256.215-.55.389-.883.523a6.09 6.09 0 0 1-1.071.317c-.381.077-.781.13-1.199.158l-1.254.049h-.103c-.134 0-.26-.026-.377-.079s-.219-.116-.304-.201-.152-.187-.201-.304a.91.91 0 0 1-.079-.377zm3.573-4.681h-.018c-.089 0-.177.026-.262.079-.097.061-.187.14-.268.237s-.142.209-.195.335-.073.254-.073.384c0 .114.026.215.079.304.028.049.085.091.17.128s.193.061.311.085l.389.055.396.024h.347l.225-.018c-.037-.183-.085-.367-.146-.554s-.13-.357-.219-.511-.195-.282-.316-.383-.262-.156-.42-.164zm-.237-5.405l1.351 1.351-1.351 1.351-1.351-1.351 1.351-1.351zm7.183 11.048c-.499 0-.927-.063-1.284-.189s-.665-.31-.925-.566c-.162-.162-.288-.333-.377-.511s-.148-.353-.189-.523-.059-.339-.067-.493l-.006-.396v-.091l.012-.645.012-.998-.006-1.26-.037-1.37-.079-1.321a9.73 9.73 0 0 0-.14-1.102l1.82-.554c.053.268.095.584.128.95l.079 1.138.049 1.199.024 1.12v.122l-.03.767-.067.852-.012.39.018.42a2.62 2.62 0 0 0 .164.767c.037.093.081.164.134.213s.122.085.195.11a1.08 1.08 0 0 0 .237.037l.292.006h.055c.13 0 .254.026.371.079s.219.124.304.213.161.187.213.304.079.241.079.371a.91.91 0 0 1-.079.377c-.052.118-.123.219-.213.304a.88.88 0 0 1-.304.207.96.96 0 0 1-.371.073zm4.61 2.003l-1.169 1.175-1.156-1.157-1.145 1.144-1.18-1.175 1.168-1.175 1.157 1.156 1.144-1.144 1.181 1.175zm-5.886-2.964c0-.134.026-.26.079-.377s.116-.219.201-.304a.88.88 0 0 1 .304-.207c.118-.049.243-.073.377-.073h.968l.603-.024c.219-.016.43-.043.633-.079a3.16 3.16 0 0 0 .548-.146c.166-.065.288-.146.365-.244.045-.069.067-.162.067-.28 0-.175-.043-.382-.128-.621s-.178-.483-.292-.73l-.353-.712-.286-.566 1.735-.852c.126.219.247.479.365.779l.316.919a8.9 8.9 0 0 1 .226.925c.057.3.085.562.085.785a2.83 2.83 0 0 1-.219 1.126c-.171.382-.404.698-.7.95a2.86 2.86 0 0 1-1.065.548c-.122.032-.274.059-.457.079l-.554.043-.529.018-.39.006h-.937c-.134 0-.26-.024-.377-.073a.88.88 0 0 1-.304-.207c-.085-.085-.152-.187-.201-.304s-.079-.243-.079-.377zm10.188-3.5l.401 1.284.146.572.128.59.098.578a4.12 4.12 0 0 1 .036.524 3.97 3.97 0 0 1-.158 1.114 4.85 4.85 0 0 1-.438 1.059c-.187.341-.41.668-.67.98s-.548.613-.864.889a9.19 9.19 0 0 1-1.017.767c-.361.239-.734.454-1.12.645l-1.108-1.54.889-.499c.296-.183.58-.38.852-.591s.532-.432.767-.663c.24-.231.447-.467.621-.706s.319-.483.42-.73.152-.483.152-.718c0-.171-.024-.355-.073-.554a5.4 5.4 0 0 0-.189-.639l-.28-.73-.353-.828 1.76-.803zm1.877 1.619a5.72 5.72 0 0 0 .597.329l.706.304a6.95 6.95 0 0 0 .706.219c.227.057.424.085.591.085l.237-.006.304-.037.329-.073c.11-.032.209-.073.298-.122s.169-.105.225-.17a.4.4 0 0 0 .092-.243v-.018c0-.154-.047-.327-.14-.517-.102-.199-.238-.406-.408-.621a6.04 6.04 0 0 0-.584-.657l-.682-.639-.706-.572-.652-.456 1.078-1.601a13.4 13.4 0 0 1 1.169.925c.389.341.748.704 1.077 1.09a7.95 7.95 0 0 1 .852 1.187 4.82 4.82 0 0 1 .517 1.23c.033.118.055.237.067.359s.019.231.019.341c0 .377-.073.724-.219 1.041a2.47 2.47 0 0 1-.615.816c-.26.227-.572.404-.938.53a3.68 3.68 0 0 1-1.205.189.79.79 0 0 1-.097-.006h-.098c-.28 0-.568-.03-.864-.091s-.582-.134-.87-.231a7.82 7.82 0 0 1-.834-.341l-.749-.408.797-1.832z" fill="#666"/><path d="M126.508 30.89a16.45 16.45 0 0 1 .441-4.338c1.1-4.622 4.334-7.417 9.376-8.111 1.056-.145 2.126-.2 3.191-.281a4.95 4.95 0 0 1 3.118.829c1.992 1.284 4.025 1.304 6.028.029a5.46 5.46 0 0 1 3.301-.857c1.992.09 3.945.325 5.849.963 3.485 1.17 5.444 3.755 6.653 7.062.136.367.026.47-.338.514-.697.083-1.392.183-2.078.328a5.24 5.24 0 0 0-4.165 4.934c-.09 2.318 1.482 4.492 3.749 5.176.183.053.35.106.528.147 1.854.42 1.854.42 1.174 2.228-.957 2.54-2.241 4.877-4.219 6.787-1.787 1.785-4.118 2.924-6.625 3.235a5.28 5.28 0 0 1-3.593-.723c-2.003-1.227-4.169-1.352-6.174-.136-1.704 1.035-3.38 1.042-5.185.6-2.568-.626-4.606-2.067-6.265-4.065-2.741-3.301-4.065-7.186-4.601-11.372a17.34 17.34 0 0 1-.165-2.951zm12.41-9.23c-.786.092-1.581.15-2.362.283-3.579.603-5.708 2.449-6.255 5.869-.851 5.336.184 10.339 3.346 14.791 1.337 1.886 3.177 3.098 5.528 3.428.54.091 1.094-.01 1.567-.286 3.272-1.834 6.579-1.834 9.858-.024a2.51 2.51 0 0 0 1.741.295c3.204-.519 5.114-2.638 6.63-5.277.307-.535.252-.785-.304-1.13-5.737-3.575-5.686-11.535.099-15.024.688-.415.512-.614.033-.983-1.669-1.284-3.628-1.673-5.655-1.876a5.61 5.61 0 0 0-3.404.691c-2.773 1.504-5.646 1.409-8.402-.136-.787-.438-1.53-.737-2.42-.622zm14.694-9.22a12.47 12.47 0 0 1-.985-1.748c-.323-.717-.578-.541-.983-.066l-4.087 4.675-.568.69-.274.275-.17.195c-.061.042-.156.136-.174.123-.131-.095-.026-.184.027-.275l.149-.183.258-.316.551-.734 1.284-1.768c1.208-1.61 1.195-1.651-.551-2.693-.317-.183-.447-.183-.559.196l-1.977 6.509.016.013c.367-.238.798.05 1.244-.218l6.509-3.698c.462-.259.613-.488.29-.978z" fill="#00c05d"/><g fill="#666"><path d="M86.671 42.962h10.443c1.699 0 2.187-.486 2.219-2.202v-2.494c-.011-.477.174-.616.649-.636 2.379-.104 2.379-.118 2.379 2.228v1.294c.045 1.233.634 1.797 1.849 1.786 1.028 0 1.664-.647 1.692-1.775V38.39c-.017-.534.118-.751.713-.764 2.299-.052 2.297-.074 2.301 2.219l.024 1.383c.099 1.215.739 1.782 1.928 1.738 1.037-.037 1.682-.758 1.664-1.927-.026-1.237-.311-2.44-.605-3.635-.111-.453-.063-.675.407-.808 2.796-.789 2.139-1.311 2.796 1.603a13.12 13.12 0 0 1 .369 2.74c.023 1.849-.584 3.42-2.244 4.367-1.714.976-3.498.873-5.199-.074-.488-.274-.78-.3-1.28 0-1.769 1.052-3.598.924-5.361-.031-.477-.261-.762-.283-1.197.035-.716.494-1.572.746-2.442.717l-22.002.015c-.669 0-.945-.194-.924-.889.043-2.509-.229-2.089 2.014-2.106l9.808-.011zm-40.148 2.97c.569 2.317-.056 3.664-2.232 4.53-2.54 1.01-5.219 1.011-7.806.359-2.795-.704-4.228-3.352-3.951-6.708.115-1.396.564-2.701 1.119-3.979.185-.442.399-.494.839-.296 1.505.678 1.518.66.961 2.169-.508 1.383-.776 2.792-.386 4.252.418 1.564 1.536 2.466 3.143 2.472 1.411 0 2.838.185 4.228-.185.775-.215 1.816-.497 1.793-1.335s-1.133-.836-1.849-1.052c-.292-.089-.614-.083-.908-.166-.39-.111-1.024.209-1.145-.287-.148-.606-.039-1.283.017-1.925.024-.27.329-.224.534-.224h11.367c.47 0 .684.185.673.645a9.02 9.02 0 0 0 0 .924c.054.658-.259.845-.882.836l-5.517-.031zm19.017-.026c-.706 0-1.457.15-2.111-.035-.893-.253-.987.17-1.143.838-.703 3.006-3.093 4.517-6.403 4.291-.37-.026-.484-.185-.455-.521v-.277c-.024-1.479-.024-1.479 1.457-1.581 2.33-.148 3.167-.998 3.221-3.358V40.19c-.017-.699.218-.893.9-.878 1.496.032 1.496 0 1.496 1.538 0 2.553.142 2.692 2.727 2.692l2.219-.011c.662-.041.895.237.845.86a7.29 7.29 0 0 0 0 .828c.017.497-.185.739-.712.719-.677-.022-1.355 0-2.034 0l-.007-.032z"/><use xlink:href="#B"/><use xlink:href="#B" x="15.342"/><path d="M69.244 49.861a1.15 1.15 0 0 1-1.228 1.187c-.706-.015-1.161-.349-1.209-1.094a1.13 1.13 0 0 1 1.161-1.239c.717-.017 1.255.464 1.276 1.146zm9.287 1.19c-.74 0-1.241-.501-1.185-1.209s.442-1.109 1.18-1.128a1.18 1.18 0 0 1 .879.313c.118.109.212.241.276.388s.099.305.1.466c.009.671-.533 1.17-1.25 1.17zm17.742 0c-.775-.072-1.181-.449-1.185-1.185 0-.706.52-1.178 1.246-1.155a1.17 1.17 0 0 1 .464.084 1.19 1.19 0 0 1 .394.26c.113.112.2.247.259.394a1.17 1.17 0 0 1 .083.464c-.004.158-.041.315-.107.459a1.17 1.17 0 0 1-1.154.679h0zM51.502 33.466a1.17 1.17 0 0 1-1.283 1.137c-.712-.039-1.139-.409-1.159-1.146-.02-.704.495-1.194 1.215-1.187.16-.006.32.021.469.079s.286.145.4.257a1.19 1.19 0 0 1 .267.394c.061.148.092.307.091.467h0zm14.046 16.463a1.17 1.17 0 0 1-.403.842 1.15 1.15 0 0 1-.417.231 1.17 1.17 0 0 1-.474.045c-.714-.048-1.13-.427-1.141-1.163-.011-.706.508-1.185 1.231-1.17a1.18 1.18 0 0 1 1.204 1.215h0zm27.042 1.122c-.74 0-1.246-.492-1.196-1.2s.431-1.12 1.17-1.135a1.19 1.19 0 0 1 .473.061c.152.052.291.135.41.243s.214.239.28.386a1.18 1.18 0 0 1 .104.465c.015.671-.521 1.18-1.241 1.18z"/></g><defs ><path id="B" d="M56.49 39.015l.013 5.989c.015.701-.163 1.059-.924.925a.75.75 0 0 0-.093 0c-1.584-.024-1.383.196-1.387-1.355l-.02-11.424c0-.712.185-.961.912-.936 1.792.063 1.468-.144 1.479 1.451l.02 5.351z"/></defs></svg>